<svg xmlns="http://www.w3.org/2000/svg" width="512" height="512" viewBox="0 0 512 512">
  <defs>
    <linearGradient id="bgGrad2" x1="0%" y1="0%" x2="100%" y2="100%">
      <stop offset="0%" style="stop-color:#2196F3;stop-opacity:1" />
      <stop offset="100%" style="stop-color:#1565C0;stop-opacity:1" />
    </linearGradient>
  </defs>
  <!-- Background rounded square -->
  <rect x="16" y="16" width="480" height="480" rx="96" fill="url(#bgGrad2)" />
  <!-- Heart shape -->
  <path d="M256,380 C160,300 100,240 100,190 C100,148 134,120 170,120 C200,120 230,140 256,175 C282,140 312,120 342,120 C378,120 412,148 412,190 C412,240 352,300 256,380Z"
        fill="#FFFFFF" opacity="0.95" />
  <!-- Forward arrow (dispatch) overlaid on heart -->
  <polygon points="230,220 310,260 230,300" fill="#1565C0" opacity="0.85" />
  <rect x="180" y="245" width="80" height="30" rx="4" fill="#1565C0" opacity="0.85" />
  <!-- Pulse line at bottom -->
  <polyline points="100,420 180,420 200,395 220,445 240,400 260,420 340,420 412,420"
            fill="none" stroke="#BBDEFB" stroke-width="6" stroke-linecap="round" stroke-linejoin="round" />
</svg>
